<?xml version="1.0" encoding="UTF-8" standalone="no"?>
<svg
   width="488"
   height="349"
   viewBox="0 0 488 349"
   fill="none"
   version="1.1"
   id="svg1068"
   sodipodi:docname="shuffle.svg"
   inkscape:version="1.1.1 (1:1.1+202109281949+c3084ef5ed)"
   xmlns:inkscape="http://www.inkscape.org/namespaces/inkscape"
   xmlns:sodipodi="http://sodipodi.sourceforge.net/DTD/sodipodi-0.dtd"
   xmlns:xlink="http://www.w3.org/1999/xlink"
   xmlns="http://www.w3.org/2000/svg"
   xmlns:svg="http://www.w3.org/2000/svg">
  <sodipodi:namedview
     id="namedview1070"
     pagecolor="#ffffff"
     bordercolor="#666666"
     borderopacity="1.0"
     inkscape:pageshadow="2"
     inkscape:pageopacity="0.0"
     inkscape:pagecheckerboard="0"
     showgrid="false"
     inkscape:zoom="0.72336066"
     inkscape:cx="244"
     inkscape:cy="174.87819"
     inkscape:window-width="1920"
     inkscape:window-height="1016"
     inkscape:window-x="0"
     inkscape:window-y="27"
     inkscape:window-maximized="1"
     inkscape:current-layer="svg1068" />
  <path
     d="m 397.434,0.959999 c 30.04,25.7 60.08,51.42 89.971,77.29 C 457.915,104.761 427.255,130.101 397.304,156.15 c 0.07,-17.43 -0.11,-34.851 0.061,-52.271 -19,0.03 -38,-0.109 -56.99,0.061 -9.13,0.02 -17.72,4.58 -23.87,11.16 -54.55,56.779 -109.21,113.46 -163.74,170.26 -6.06,6.29 -14.51,10.4 -23.34,10.32 -34.689,0.22 -69.39,-0.17 -104.069,0.229 -12.891,-0.38 -23.94998,-12.06 -23.93998,-24.89 -0.639999,-13.91 11.61998,-25.9 25.27998,-26.311 27.55,-0.26 55.13,0.15 82.68,-0.189 10.05,-0.061 18.9,-5.92 25.24,-13.32 53.72,-55.939 107.5,-111.83 161.25,-167.750001 6.04,-6.59 14.72,-10.65 23.68,-10.85 25.939,-0.11 51.89,0.1 77.82,-0.101 -0.053,-17.178 -0.192,-34.357 0.068,-51.538 z"
     fill="url(#paint0_linear)"
     id="path1051"
     style="fill:url(#linearGradient2727);fill-opacity:1" />
  <path
     d="M20.764 52.48C58.264 52.169 95.895 52.51 133.454 52.4C143.134 51.97 152.994 55.6 159.574 62.83C175.183 78.891 190.624 95.141 206.144 111.29C212.503 117.79 215.994 127.25 213.784 136.27C211.374 147.31 200.804 156.089 189.424 155.98C181.695 156.33 174.574 152.39 168.884 147.5C158.244 136.16 148.044 124.38 137.235 113.19C131.045 106.89 122.145 103.78 113.405 103.9C85.415 103.78 57.425 103.98 29.434 103.81C18.294 103.47 6.41401 98.209 2.30401 87.15C-4.02599 73.07 5.65401 55.19 20.764 52.48Z"
     fill="#8C8C8C"
     id="path1053" />
  <path
     d="M249.554 196.17C259.224 188.441 274.384 189.561 282.914 198.49C294.603 210.47 306.044 222.7 317.744 234.67C323.824 241.08 332.584 244.74 341.414 244.65C360.074 244.58 378.733 244.73 397.404 244.56C397.214 227.45 397.334 210.339 397.364 193.23C427.634 218.87 457.674 244.78 487.664 270.75C457.714 296.7 427.603 322.46 397.443 348.16C397.063 330.66 397.483 313.15 397.254 295.65C371.284 295.41 345.314 295.629 319.344 295.54C310.394 295.46 301.774 291.19 295.784 284.63C279.054 267.36 262.054 250.36 245.494 232.941C235.904 222.471 238.034 204.36 249.554 196.17Z"
     fill="#8C8C8C"
     id="path1055" />
  <defs
     id="defs1066">
    <linearGradient
       id="paint0_linear"
       x1="8.8009653"
       y1="155.77257"
       x2="478.02112"
       y2="153.01782"
       gradientUnits="userSpaceOnUse"
       gradientTransform="translate(0)">
      <stop
         stop-color="#C12A23"
         id="stop1057"
         style="stop-color:#c31432;stop-opacity:1" />
      <stop
         offset="0.99989998"
         stop-color="#102D71"
         stop-opacity="0.63"
         id="stop1059"
         style="stop-color:#240b36;stop-opacity:0.94509804" />
      <stop
         offset="0.9999"
         stop-color="#001AFF"
         stop-opacity="0.0260417"
         id="stop1061" />
      <stop
         offset="1"
         stop-color="#0A3068"
         stop-opacity="0.66"
         id="stop1063" />
    </linearGradient>
    <linearGradient
       inkscape:collect="always"
       xlink:href="#paint0_linear"
       id="linearGradient2727"
       gradientUnits="userSpaceOnUse"
       gradientTransform="translate(0)"
       x1="8.8009653"
       y1="155.77257"
       x2="550.83374"
       y2="153.01782" />
  </defs>
</svg>
